<?xml version="1.0" encoding="UTF-8"?>
<svg width="1000px" height="1000px" viewBox="0 0 1000 1000" version="1.1" xmlns="http://www.w3.org/2000/svg" xmlns:xlink="http://www.w3.org/1999/xlink">
    <!-- Generator: Sketch 54.1 (76490) - https://sketchapp.com -->
    <title>Color logo - no background</title>
    <desc>Created with Sketch.</desc>
    <defs>
        <linearGradient x1="0%" y1="0%" x2="100%" y2="0%" id="linearGradient-1">
            <stop stop-color="#834F2A" offset="0%"></stop>
            <stop stop-color="#DBA173" offset="50%"></stop>
            <stop stop-color="#834F2A" offset="100%"></stop>
        </linearGradient>
        <linearGradient x1="0%" y1="0%" x2="100%" y2="0%" id="linearGradient-2">
            <stop stop-color="#834F2A" offset="0%"></stop>
            <stop stop-color="#DBA173" offset="50%"></stop>
            <stop stop-color="#834F2A" offset="100%"></stop>
        </linearGradient>
        <linearGradient x1="0%" y1="0%" x2="100%" y2="0%" id="linearGradient-3">
            <stop stop-color="#834F2A" offset="0%"></stop>
            <stop stop-color="#DBA173" offset="50%"></stop>
            <stop stop-color="#834F2A" offset="100%"></stop>
        </linearGradient>
        <linearGradient x1="0%" y1="0%" x2="100%" y2="0%" id="linearGradient-4">
            <stop stop-color="#834F2A" offset="0%"></stop>
            <stop stop-color="#DBA173" offset="50%"></stop>
            <stop stop-color="#834F2A" offset="100%"></stop>
        </linearGradient>
        <linearGradient x1="0%" y1="0%" x2="100%" y2="0%" id="linearGradient-5">
            <stop stop-color="#834F2A" offset="0%"></stop>
            <stop stop-color="#DBA173" offset="50%"></stop>
            <stop stop-color="#834F2A" offset="100%"></stop>
        </linearGradient>
    </defs>
    <g id="Page-1" stroke="none" stroke-width="1" fill="none" fill-rule="evenodd">
        <g id="Color-logo---no-background" transform="translate(0.000000, -2.000000)" fill-rule="nonzero">
            <g id="SvgjsG12229" transform="translate(199.090913, 0.608884)">
                <polygon id="Path" fill="url(#linearGradient-2)" points="87.9502012 489.188572 64.4981493 258.563377 58.6301295 151.066462 46.9141173 133.48243 27.3573892 65.0789431 0 18.1648258 29.0997705 1.48202548 23.4520518 10.354151 60.5827982 53.3529172 80.1295127 92.4363323 84.0448637 129.567079 93.8182209 149.113793 99.6762271 244.884683 91.8655522 289.836118 105.544247 344.56091 119.222941 493.093909 148.532999 584.949448 109.449584 676.804986 51.6205496 1001.39861 7.8206885 1001.39861 101.628896 600.590825 101.628896 528.271987"></polygon>
                <polygon id="Path" fill="url(#linearGradient-3)" points="588.284005 471.594526 551.143245 503.518156 586.331336 522.413981 540.078122 509.386176 508.134465 531.526435 458.636817 523.054857 414.336272 486.585014 385.0162 463.773838 350.499025 450.746033 340.715655 489.839461 312.046473 527.621097 249.511006 566.714526 308.802038 520.461312 335.518552 487.876779 338.12211 445.538916 304.886687 390.814124 284.699097 332.834884 259.294376 289.185228 223.445382 258.563377 256.680805 276.808313 278.831077 300.911254 291.207993 300.911254 329.650532 267.685845 388.280661 189.509001 416.93983 176.481196 394.148681 190.81078 331.603201 270.940293 295.123344 307.430163 291.858882 328.929547 319.867161 366.060293 342.027447 381.691656 371.988395 375.182761 412.383603 339.34378 467.769298 281.36454 502.286473 262.468715 474.278194 282.666319 380.459973 379.738988 360.262369 389.502331 358.299687 403.841929 392.175985 448.793364 421.496057 450.095143 435.825641 438.369117 525.097649 382.342546 553.746803 375.182761 525.738525 388.861455 426.072311 453.349591 428.675869 473.557209 449.524363 505.470825 471.684649 517.196851 501.625569 521.753078"></polygon>
                <polygon id="Path" fill="url(#linearGradient-4)" points="303.094238 127.704533 264.501493 177.782975 252.124578 215.564611 235.832311 200.584137 246.907447 222.73441 234.530532 250.091799 235.832311 266.384066 213.031149 254.00715 183.711077 215.564611 153.75013 85.2765471 89.1718708 15.2408296 29.0997705 1.48202548 89.9028699 14.2594884 158.306357 84.6156438 168.089727 131.529761 189.579097 213.611942 203.257792 235.111326 216.936486 197.980579 277.529298 135.435099"></polygon>
                <polygon id="Path" fill="url(#linearGradient-5)" points="414.336272 751.076493 386.978882 743.265818 322.470719 698.304369 291.207993 682.673006 323.942731 690.483681 399.195579 711.502407 446.099682 674.862331 501.795802 609.863498 580.463317 529.733985 589.265346 523.875979 580.423262 494.515853 594.091943 438.859788 572.171985 387.559676 555.509212 374.852309 565.262542 356.286936 562.819203 308.401491 535.031225 277.619421 499.292381 260.035389 500.293749 219.520017 468.530338 182.339202 414.296217 177.502592 417.270281 155.963154 397.24291 119.793722 362.054819 112.463704 298.04734 131.529761 297.927176 129.266668 361.564148 110.030378 398.704908 117.851067 422.15696 154.981813 420.204291 174.518514 472.966401 180.386533 507.60374 218.939223 508.134465 260.516046 537.454537 274.194741 568.747304 307.430163 570.679946 366.060293 562.859257 375.823637 574.595297 385.596994 600.000017 440.321786 586.331336 500.914598 592.179329 526.329332 472.966401 688.541026 445.609012 710.030395 431.940331 749.123824 402.620259 1001.39861 383.764489 1001.39861"></polygon>
            </g>
        </g>
    </g>
</svg>